<svg xmlns="http://www.w3.org/2000/svg" viewBox="0 0 200 200">
  <!-- Círculo externo -->
  <circle cx="100" cy="100" r="95" stroke="#CCCCCC" stroke-width="3" fill="white"/>
  
  <!-- Letra P estilizada -->
  <path d="M 70 65 L 70 135 M 70 85 Q 70 65 85 65 Q 100 65 100 80 Q 100 95 85 95 L 70 95" stroke="#0073B1" stroke-width="8" stroke-linecap="round" stroke-linejoin="round" fill="none"/>
  
  <!-- Gota d'água -->
  <ellipse cx="115" cy="75" rx="10" ry="16" fill="#0073B1"/>
  <path d="M 115 91 Q 105 100 115 110 Q 125 100 115 91" fill="#0073B1"/>
  
  <!-- Folha verde -->
  <path d="M 80 55 Q 85 50 88 55 Q 85 60 80 60" fill="#7CB342"/>
  
  <!-- Pincel blue -->
  <path d="M 70 100 Q 85 95 100 105 Q 115 115 130 110" stroke="#0073B1" stroke-width="6" stroke-linecap="round" fill="none"/>
  
  <!-- Brilhos -->
  <circle cx="135" cy="60" r="3" fill="#0073B1"/>
  <circle cx="125" cy="55" r="2.5" fill="#0073B1"/>
</svg>
