<svg width="200" height="200" viewBox="0 0 200 200" fill="none" xmlns="http://www.w3.org/2000/svg">
  <!-- Círculo externo -->
  <circle cx="100" cy="100" r="95" stroke="#CCCCCC" stroke-width="3" fill="white"/>
  <circle cx="100" cy="100" r="90" stroke="none" fill="white"/>
  
  <!-- Letra P estilizada com gota -->
  <path d="M 70 65 L 70 135 M 70 85 Q 70 65 85 65 Q 100 65 100 80 Q 100 95 85 95 L 70 95" stroke="#0073B1" stroke-width="8" stroke-linecap="round" stroke-linejoin="round" fill="none"/>
  
  <!-- Gota d'água -->
  <ellipse cx="115" cy="75" rx="10" ry="16" fill="#0073B1"/>
  <path d="M 115 91 Q 105 100 115 110 Q 125 100 115 91" fill="#0073B1"/>
  
  <!-- Folha verde -->
  <path d="M 80 55 Q 85 50 88 55 Q 85 60 80 60" fill="#7CB342" stroke="#7CB342" stroke-width="1"/>
  
  <!-- Pincel/onda azul -->
  <path d="M 70 100 Q 85 95 100 105 Q 115 115 130 110" stroke="#0073B1" stroke-width="6" stroke-linecap="round" fill="none"/>
  
  <!-- Pincel com linhas (efeito de escova) -->
  <line x1="110" y1="100" x2="105" y2="115" stroke="#0073B1" stroke-width="2" stroke-linecap="round"/>
  <line x1="120" y1="105" x2="115" y2="120" stroke="#0073B1" stroke-width="2" stroke-linecap="round"/>
  <line x1="130" y1="110" x2="125" y2="125" stroke="#0073B1" stroke-width="2" stroke-linecap="round"/>
  
  <!-- Brilho/sparkle -->
  <circle cx="135" cy="60" r="3" fill="#0073B1"/>
  <circle cx="140" cy="70" r="2" fill="#7CB342"/>
  <circle cx="125" cy="55" r="2.5" fill="#0073B1"/>
  
  <!-- LEIDY texto -->
  <text x="100" y="155" font-family="Arial, sans-serif" font-size="32" font-weight="bold" fill="#0073B1" text-anchor="middle">LEIDY</text>
  
  <!-- CLEANER SERVICES texto -->
  <text x="100" y="175" font-family="Arial, sans-serif" font-size="12" font-weight="600" fill="#0073B1" text-anchor="middle" letter-spacing="2">CLEANER SERVICES</text>
</svg>
